<svg xmlns="http://www.w3.org/2000/svg" viewBox="0 0 80.76 93.41"><defs><style>.cls-1{fill:#fff;}.cls-1,.cls-2{stroke:#566f9e;stroke-miterlimit:10;stroke-width:2px;}.cls-2{fill:red;}</style></defs><title>Asset 14</title><g id="Layer_2" data-name="Layer 2"><g id="Layer_2-2" data-name="Layer 2"><g id="Layer_2-3" data-name="Layer 2"><g id="Layer_2-2-2" data-name="Layer 2-2"><path class="cls-1" d="M28.19,63.43l6.56,3.35H45.06l5.63-3.35,3.75,2.23L71.31,85.72l1.88,1.12v2.23L67.56,91.3H51.63L41.31,89.07,28.19,92.41H17.88L9.44,89.07V84.61l15-17.83Z"/><path class="cls-1" d="M5.69,11l3.75,2.23,8.44,10,7.5,7.8-.94,5.57L22.56,43.3l.94,10,1.88,4.46-.94,4.46L6.63,83.5H4.75L1.94,74.58V61.2l.94-4.45V47.83L1,37.8V23.31L4.75,12.16Z"/><path class="cls-2" d="M23.5,1,34.75,2.13l5.63,2.23L53.5,2.13H61l8.44,3.35,2.81,3.34L61.94,20l-6.56,6.68H53.5v2.23l-5.62-1.11L46,26.65H34.75L29.13,30H27.25l-6.56-8.92L9.44,8.82l.94-3.34,6.56-3.35Z"/><path class="cls-1" d="M74.13,11l2.81,4.46.94,2.23V38.91L76,48.94l2.81,13.38.94,12.26-2.81,10-3.75-2.23L63.81,71.24l-7.5-7.81L54.44,59l2.81-5.58V41.14l-2.81-8.91L68.5,16.62Z"/><path class="cls-2" d="M37.56,28.88,46,30l5.63,4.45L54.44,40l.94,10L52.56,56.7,46,63.43l-2.81,1.12H36.63L29.13,59,25.38,51.2V42.26l4.68-8.92Z"/></g></g></g></g></svg>