<svg xmlns="http://www.w3.org/2000/svg" viewBox="0 0 75.86 73.22"><defs><style>.cls-1{fill:#fff;}.cls-1,.cls-2{stroke:#566f9e;stroke-miterlimit:10;stroke-width:2px;}.cls-2{fill:red;}</style></defs><title>Asset 3</title><g id="Layer_2" data-name="Layer 2"><g id="Layer_2-2" data-name="Layer 2"><path class="cls-1" d="M26.49,49.36,32.65,52l6.15.88,7.91-2.64h2.64l7,6.15,7.92,7.92,4.39,3.51v1.76L64.3,71.34H48.47l-8.79-1.76L29.13,72.22H16.82L8,68.7l1.76-3.52L23,52.88Z"/><path class="cls-1" d="M6.27,8l6.16,5.28L24.74,24.75,23,29.14l-1.76,7,1.76,7,.88,4.39L6.27,65.18,3.64,62.55,1.88,57.27v-7l1.76-7.91-.88-6.16L1,29.14V18.59L4.52,9.8Z"/><path class="cls-1" d="M69.57,8l2.64,2.64L74,19.47,73.09,30.9l-.88,3.52v7l2.64,12.31L74,62.55l-1.76,3.51-3.52-1.75-8.79-8.8-7-6.15-1.76-2.64,2.64-5.27V30.9l-2.64-6.15L63.42,13.32Z"/><path class="cls-2" d="M16.82,1H32.65l5.27,1.76,7-.88L55.51,1l7.91,1.76L67.81,5.4,64.3,9.8l-9.67,7.91L48.47,23,43.2,20.35H33.53l-7,2.64L10.67,7.16,8.91,6.28l.88-2.63Z"/><path class="cls-1" d="M37.76,22.88l3.43.43a8.44,8.44,0,0,1,3.69,1.37l1.7,1.13a8.57,8.57,0,0,1,2.91,3.3l1.37,2.73a8.59,8.59,0,0,1,.85,4.78l-.35,3.18a8.46,8.46,0,0,1-1.55,4L48,46.44a8.59,8.59,0,0,1-3.14,2.69l-1.56.78a8.62,8.62,0,0,1-3.83.9H37.31a8.62,8.62,0,0,1-3.83-.9l-3.19-1.6A8.57,8.57,0,0,1,27,45.4L25.9,43.76A8.58,8.58,0,0,1,24.51,40l-.37-3.33A8.59,8.59,0,0,1,25,31.84l.73-1.46a8.49,8.49,0,0,1,2.09-2.67l3.3-2.83a8.5,8.5,0,0,1,3.5-1.81h0A8.57,8.57,0,0,1,37.76,22.88Z"/></g></g></svg>