<svg xmlns="http://www.w3.org/2000/svg" viewBox="0 0 76.07 73.43"><defs><style>.cls-1{fill:red;}.cls-1,.cls-2{stroke:#566f9e;stroke-miterlimit:10;stroke-width:2px;}.cls-2{fill:#566f9e;}</style></defs><title>Asset 43</title><g id="Layer_2" data-name="Layer 2"><g id="Layer_2-2" data-name="Layer 2"><path class="cls-1" d="M14.55,1H25.39l9,1.74h7.23L51.58,1h9l8.13,2.61L66.94,7.1,52.49,21H25.39l-4.52-1.75-8.13-8.71L9.13,8V6.23H7.32L9.13,2.74Z"/><path class="cls-1" d="M69.65,7.1l3.61,1.74,1.81,5.23V25.39l-1.81,7.84v7L75.07,48V59.37l-2.71,6.09H69.65L55.2,51.53l-.91-1.75V24.52L57,20.17,68.75,8.84Z"/><path class="cls-1" d="M4.61,7.1l6.33,5.22,9.93,9.59.91,1.74v27L5.52,66.34,2.81,63.72,1,59.37V48L2.81,40.2v-7L1,24.52V14.07Z"/><path class="cls-1" d="M22.68,53.27H53.39L68.75,68.08v1.74l-7.23,2.61H48.87l-8.12-1.74H34.42L27.2,72.43H14.55L7.32,69.82l1.81-3.48Z"/><path class="cls-2" d="M24.49,24.65H51.58V50.78H24.49Z"/></g></g></svg>