<svg xmlns="http://www.w3.org/2000/svg" viewBox="0 0 78.87 76.32"><defs><style>.cls-1{fill:#566f9e;stroke:#566f9e;stroke-miterlimit:10;stroke-width:5px;}.cls-2{fill:red;}</style></defs><title>Asset 50</title><g id="Layer_2" data-name="Layer 2"><g id="Layer_2-2" data-name="Layer 2"><path class="cls-1" d="M28,50.87l6.16,2.64,6.15.88,7.91-2.64h2.64l7,6.16,7.92,7.91,4.39,3.52v1.75L65.8,72.85H50l-8.79-1.76L30.63,73.73H18.32L9.53,70.22l1.76-3.52L24.48,54.39Z"/><path class="cls-1" d="M7.77,9.56l6.16,5.27L26.24,26.26l-1.76,4.39-1.76,7,1.76,7,.88,4.4L7.77,66.7,5.14,64.06,3.38,58.79v-7l1.76-7.91-.88-6.15-1.76-7V20.11L6,11.31Z"/><path class="cls-1" d="M71.07,9.56l2.64,2.63L75.47,21l-.88,11.43-.88,3.52v7l2.64,12.31-.88,8.79-1.76,3.52-3.52-1.76L61.4,57l-7-6.16-1.76-2.63L55.25,43V32.41l-2.64-6.15L64.92,14.83Z"/><path class="cls-1" d="M18.32,2.52H34.15l5.27,1.76,7-.88L57,2.52l7.91,1.76,4.39,2.64L65.8,11.31l-9.67,7.92L50,24.5,44.7,21.86H35L28,24.5,12.17,8.68,10.41,7.8l.88-2.64Z"/><line class="cls-2" x1="10.87" y1="8.23" x2="69.87" y2="71.23"/><path class="cls-2" d="M7.34,11.77l51.5,55,7.5,8c4.41,4.71,11.47-2.38,7.07-7.07l-51.5-55-7.5-8C10,0,2.94,7.07,7.34,11.77Z"/><line class="cls-2" x1="68.87" y1="7.23" x2="9.87" y2="70.23"/><path class="cls-2" d="M65.34,3.7l-51.51,55-7.49,8C1.94,71.39,9,78.48,13.41,73.77l51.5-55,7.5-8C76.8,6.07,69.75-1,65.34,3.7Z"/></g></g></svg>